<svg width="24" height="24" viewBox="0 0 24 24" fill="none" xmlns="http://www.w3.org/2000/svg">
  <path d="M18.92 6.01C18.72 5.42 18.16 5 17.5 5H16V4C16 2.9 15.1 2 14 2H10C8.9 2 8 2.9 8 4V5H6.5C5.84 5 5.28 5.42 5.08 6.01L3 12V20C3 20.55 3.45 21 4 21H5C5.55 21 6 20.55 6 20V19H18V20C18 20.55 18.45 21 19 21H20C20.55 21 21 20.55 21 20V12L18.92 6.01ZM10 4H14V5H10V4ZM6.5 7H17.5L19.5 12H4.5L6.5 7ZM7 17C6.45 17 6 16.55 6 16S6.45 15 7 15 8 15.45 8 16 7.55 17 7 17ZM17 17C16.45 17 16 16.55 16 16S16.45 15 17 15 18 15.45 18 16 17.55 17 17 17Z" fill="currentColor"/>
</svg>